<svg width="1920" height="1080" viewBox="0 0 1920 1080" fill="none" xmlns="http://www.w3.org/2000/svg">
<g clip-path="url(#clip0_44_3102)">
<rect width="1920" height="1080" rx="16" fill="#5865F2"/>
<g opacity="0.25" filter="url(#filter0_f_44_3102)">
<circle cx="84.5" cy="88.5" r="329.5" fill="#DADADA"/>
</g>
<g opacity="0.75" filter="url(#filter1_f_44_3102)">
<circle cx="1599" cy="823" r="534" fill="#454FBF"/>
</g>
<path fill-rule="evenodd" clip-rule="evenodd" d="M646.9 412.275H562.075V464.49C575.181 450.418 596.337 456.209 609.85 462C622.828 467.562 637.762 465.531 646.9 459.13V412.275ZM675.175 624.825V412.275H684.925C687.079 412.275 688.825 410.529 688.825 408.375V387.9C688.825 385.746 687.079 384 684.925 384H524.05C521.896 384 520.15 385.746 520.15 387.9V408.375C520.15 410.529 521.896 412.275 524.05 412.275H533.8V624.825C533.8 663.956 566.16 696 604.975 696C643.711 696 675.175 663.95 675.175 624.825ZM604.975 589.725C604.975 601.474 595.169 611.175 583.525 611.175C571.88 611.175 562.075 601.474 562.075 589.725C562.075 577.976 571.88 568.275 583.525 568.275C595.169 568.275 604.975 577.976 604.975 589.725ZM646.9 518.55C646.9 530.299 637.094 540 625.45 540C613.805 540 604.975 530.299 604.975 518.55C604.975 506.801 613.805 497.1 625.45 497.1C637.094 497.1 646.9 506.801 646.9 518.55Z" fill="white"/>
<path d="M765.6 475V398.84H797.632C822.048 398.84 837.168 413.4 837.168 437.032C837.168 460.664 822.048 475 797.632 475H765.6ZM797.632 456.52C807.936 456.52 813.76 449.464 813.76 437.032C813.76 424.6 807.936 417.32 797.632 417.32H788.448V456.52H797.632ZM846.1 475V398.84H868.948V475H846.1ZM900.948 419C900.948 431.992 944.628 420.12 944.628 451.144C944.628 467.496 930.852 477.128 912.036 477.128C892.996 477.128 878.996 468.28 876.756 449.688H900.836C901.62 456.184 905.988 459.768 912.26 459.768C918.196 459.768 921.22 457.64 921.22 453.944C921.22 440.84 877.54 451.032 877.54 421.464C877.54 407.464 888.964 396.712 909.012 396.712C925.476 396.712 940.372 404.552 942.388 423.032H917.972C916.964 417.096 913.828 414.072 908.004 414.072C903.86 414.072 900.948 415.976 900.948 419ZM1023.87 424.824H1000.01C998.33 418.44 994.41 415.192 988.138 415.192C978.842 415.192 973.69 423.368 973.69 437.032C973.69 450.696 978.73 458.648 988.138 458.648C993.962 458.648 998.218 455.512 999.786 449.688H1023.87C1020.28 467.944 1006.06 477.128 988.698 477.128C964.954 477.128 950.282 461.896 950.282 437.032C950.282 412.168 964.954 396.712 988.698 396.712C1006.17 396.712 1020.84 406.12 1023.87 424.824ZM1069.01 477.128C1044.59 477.128 1029.47 461.784 1029.47 437.032C1029.47 412.168 1044.59 396.712 1069.01 396.712C1093.42 396.712 1108.54 412.168 1108.54 437.032C1108.54 461.784 1093.42 477.128 1069.01 477.128ZM1069.01 458.648C1079.31 458.648 1085.13 450.584 1085.13 437.032C1085.13 423.368 1079.31 415.192 1069.01 415.192C1058.7 415.192 1052.88 423.368 1052.88 437.032C1052.88 450.584 1058.7 458.648 1069.01 458.648ZM1117.46 475V398.84H1150.95C1169.88 398.84 1181.3 408.136 1181.3 422.92C1181.3 431.096 1178.16 436.92 1172.56 440.616C1175.48 443.08 1177.38 446.664 1178.5 451.368L1184.1 475H1160.47L1156.55 455.512C1155.54 450.36 1154.2 449.128 1149.38 449.128H1140.31V475H1117.46ZM1150.5 416.76H1140.31V431.768H1149.94C1155.76 431.768 1157.89 428.632 1157.89 424.264C1157.89 419.784 1155.65 416.76 1150.5 416.76ZM1191.94 475V398.84H1223.98C1248.39 398.84 1263.51 413.4 1263.51 437.032C1263.51 460.664 1248.39 475 1223.98 475H1191.94ZM1223.98 456.52C1234.28 456.52 1240.1 449.464 1240.1 437.032C1240.1 424.6 1234.28 417.32 1223.98 417.32H1214.79V456.52H1223.98ZM765.6 581V504.84H822.16V522.76H788.448V533.624H817.68V550.984H788.448V563.08H822.16V581H765.6ZM876.799 581L867.167 565.656L863.919 559.832L860.671 565.656L850.927 581H827.183L852.159 541.8L828.863 504.84H855.295L863.023 517.048L866.495 523.768L870.079 517.048L877.919 504.84H901.551L878.255 541.352L903.231 581H876.799ZM909.975 581V504.84H942.007C961.831 504.84 973.815 514.584 973.815 531.384C973.815 548.296 961.607 557.928 942.231 557.928H932.823V581H909.975ZM941.559 522.76H932.823V540.008H940.999C947.943 540.008 950.407 536.424 950.407 531.384C950.407 526.232 947.719 522.76 941.559 522.76ZM982.163 581V504.84H1038.72V522.76H1005.01V533.624H1034.24V550.984H1005.01V563.08H1038.72V581H982.163ZM1048.23 581V504.84H1081.71C1100.64 504.84 1112.07 514.136 1112.07 528.92C1112.07 537.096 1108.93 542.92 1103.33 546.616C1106.24 549.08 1108.15 552.664 1109.27 557.368L1114.87 581H1091.23L1087.31 561.512C1086.31 556.36 1084.96 555.128 1080.15 555.128H1071.07V581H1048.23ZM1081.27 522.76H1071.07V537.768H1080.71C1086.53 537.768 1088.66 534.632 1088.66 530.264C1088.66 525.784 1086.42 522.76 1081.27 522.76ZM1122.71 581V504.84H1145.56V581H1122.71ZM1156.73 581V504.84H1186.29L1198.61 542.92L1202.42 557.144L1206.23 542.92L1218.55 504.84H1247.45V581H1224.6L1226.05 530.488L1220.12 551.208L1210.37 581H1193.8L1183.83 550.76L1178.12 530.712L1179.57 581H1156.73ZM1258.66 581V504.84H1315.22V522.76H1281.51V533.624H1310.74V550.984H1281.51V563.08H1315.22V581H1258.66ZM1324.73 581V504.84H1348.92L1365.94 536.088L1372.55 550.76L1371.21 504.84H1394.05V581H1369.86L1352.73 549.528L1346.23 535.08L1347.57 581H1324.73ZM1423.93 581V523.32H1401.87V504.84H1468.84V523.32H1446.78V581H1423.93ZM765.6 687V610.84H788.448V638.952H812.08V610.84H834.928V687H812.08V657.432H788.448V687H765.6ZM913.412 657.992C913.412 677.256 900.42 689.128 879.476 689.128C858.42 689.128 845.54 677.256 845.54 657.992V610.84H868.388V657.992C868.388 665.944 872.42 670.648 879.476 670.648C886.644 670.648 890.564 665.944 890.564 657.992V610.84H913.412V657.992ZM924.084 687V610.84H957.572C975.828 610.84 986.804 619.576 986.804 633.352C986.804 639.176 984.116 643.656 979.86 646.568C987.14 649.704 991.284 655.416 991.284 663.704C991.284 678.6 980.756 687 961.38 687H924.084ZM957.124 628.76H946.932V640.408H956.564C961.604 640.408 963.396 637.944 963.396 634.696C963.396 631.112 961.492 628.76 957.124 628.76ZM960.932 656.424H946.932V669.08H960.82C965.636 669.08 967.876 666.504 967.876 662.696C967.876 659.224 965.86 656.424 960.932 656.424Z" fill="white"/>
</g>
<defs>
<filter id="filter0_f_44_3102" x="-645" y="-641" width="1459" height="1459" filterUnits="userSpaceOnUse" color-interpolation-filters="sRGB">
<feFlood flood-opacity="0" result="BackgroundImageFix"/>
<feBlend mode="normal" in="SourceGraphic" in2="BackgroundImageFix" result="shape"/>
<feGaussianBlur stdDeviation="200" result="effect1_foregroundBlur_44_3102"/>
</filter>
<filter id="filter1_f_44_3102" x="553" y="-223" width="2092" height="2092" filterUnits="userSpaceOnUse" color-interpolation-filters="sRGB">
<feFlood flood-opacity="0" result="BackgroundImageFix"/>
<feBlend mode="normal" in="SourceGraphic" in2="BackgroundImageFix" result="shape"/>
<feGaussianBlur stdDeviation="256" result="effect1_foregroundBlur_44_3102"/>
</filter>
<clipPath id="clip0_44_3102">
<rect width="1920" height="1080" rx="16" fill="white"/>
</clipPath>
</defs>
</svg>
