<svg width="256" height="256" viewBox="0 0 256 256" fill="none" xmlns="http://www.w3.org/2000/svg">
<rect width="256" height="256" rx="8" fill="#5865F2"/>
<path fill-rule="evenodd" clip-rule="evenodd" d="M150 62.5H106.5V89.2767C113.221 82.0604 124.07 85.0302 131 88C137.655 90.8523 145.314 89.8107 150 86.5279V62.5ZM164.5 171.5V62.5H169.5C170.605 62.5 171.5 61.6046 171.5 60.5V50C171.5 48.8954 170.605 48 169.5 48H87C85.8954 48 85 48.8954 85 50V60.5C85 61.6046 85.8954 62.5 87 62.5H92V171.5C92 191.567 108.595 208 128.5 208C148.365 208 164.5 191.564 164.5 171.5ZM128.5 153.5C128.5 159.525 123.472 164.5 117.5 164.5C111.528 164.5 106.5 159.525 106.5 153.5C106.5 147.475 111.528 142.5 117.5 142.5C123.472 142.5 128.5 147.475 128.5 153.5ZM150 117C150 123.025 144.972 128 139 128C133.028 128 128.5 123.025 128.5 117C128.5 110.975 133.028 106 139 106C144.972 106 150 110.975 150 117Z" fill="white"/>
</svg>
