<svg width="256" height="256" viewBox="0 0 256 256" fill="none" xmlns="http://www.w3.org/2000/svg">
<g id="Variant=Pride_v6">
<g clip-path="url(#clip0_11_16142)">
<path d="M0 32C0 14.3269 14.3269 0 32 0H224C241.673 0 256 14.3269 256 32V224C256 241.673 241.673 256 224 256H32C14.3269 256 0 241.673 0 224V32Z" fill="#5865F2"/>
<g id="Group 14">
<path id="Rectangle 910" d="M26.1147 312.397L288.735 141.849L334.73 212.675L99.4146 392.623L26.1147 312.397Z" fill="#5865F2"/>
<path id="Rectangle 909" d="M-44.1348 201.634L218.485 31.0861L273.802 116.266L40.9989 300.083L-44.1348 201.634Z" fill="#56F085"/>
<path id="Rectangle 908" d="M-52.2667 1.26825H246.089V85.718L-35.3262 108.474L-52.2667 1.26825Z" fill="#FF8B18"/>
<path id="Union" fill-rule="evenodd" clip-rule="evenodd" d="M96.1045 346.665L84.4809 355.627L97.9214 374.219L97.8436 374.248L132.365 422L146.608 416.661C161.529 411.068 190.015 400.389 213.964 382.243C222.357 376.068 230.011 369.014 237.645 361.978C252.022 348.728 266.332 335.541 285.381 328.401C301.27 322.444 320.055 320.847 338.861 319.247C354.572 317.911 370.298 316.573 384.365 312.691C414.515 304.77 436.12 286.146 448.078 275.836C448.475 275.494 448.862 275.161 449.237 274.838L460.5 265.377L445.195 244.206L445.273 244.177L414.931 202.206L400.688 207.545C385.767 213.138 357.281 223.817 332.701 241.09C324.099 246.976 316.157 253.631 308.235 260.27C293.317 272.771 278.469 285.213 259.42 292.353C243.53 298.31 225.121 300.426 206.69 302.545C191.292 304.315 175.88 306.087 161.909 310.101C131.992 318.344 109.662 335.966 97.3023 345.72C96.8921 346.044 96.4928 346.359 96.1045 346.665Z" fill="#66BBFE"/>
<path id="Union_2" fill-rule="evenodd" clip-rule="evenodd" d="M9.81042 241.581L-1.83136 250.55L11.7024 269.271L12.068 269.134L46.4957 316.757L60.7387 311.418C75.66 305.825 104.146 295.147 128.095 277C136.488 270.825 144.142 263.771 151.777 256.735C166.154 243.486 180.463 230.298 199.512 223.158C215.401 217.202 234.186 215.604 252.992 214.004C268.703 212.668 284.43 211.33 298.496 207.449C328.646 199.527 350.251 180.903 362.209 170.594C362.606 170.251 362.993 169.918 363.368 169.595L374.631 160.134L359.327 138.963L359.404 138.934L329.063 96.9633L314.801 102.309C299.861 107.91 271.339 118.601 246.721 135.889C238.107 141.78 230.152 148.44 222.217 155.083C207.274 167.593 192.402 180.044 173.329 187.194C157.42 193.157 138.99 195.281 120.539 197.408C105.124 199.184 89.6951 200.962 75.7078 204.982C45.7543 213.239 23.3894 230.874 11.0101 240.636C10.5992 240.96 10.1992 241.275 9.81042 241.581Z" fill="#66BBFE"/>
<path id="Union_3" fill-rule="evenodd" clip-rule="evenodd" d="M-75.6335 136.179L-87.2571 145.141L-73.8167 163.733L-73.8944 163.762L-39.3734 211.514L-25.1304 206.175C-10.2091 200.582 18.2769 189.904 42.2258 171.757C50.6186 165.582 58.2725 158.528 65.9074 151.492C80.2845 138.243 94.5939 125.055 113.643 117.915C129.532 111.959 148.316 110.361 167.123 108.761C182.834 107.425 198.56 106.087 212.627 102.206C242.777 94.2844 264.382 75.6597 276.34 65.3505C276.737 65.0083 277.124 64.6753 277.499 64.3521L288.762 54.8906L273.457 33.7203L273.535 33.6911L243.193 -8.27975L228.95 -2.94072C214.029 2.65256 185.543 13.3306 160.963 30.6039C152.361 36.4904 144.419 43.1455 136.497 49.784C121.579 62.2849 106.731 74.727 87.6819 81.8674C71.7924 87.8236 53.3829 89.94 34.9521 92.0587C19.5542 93.8288 4.14157 95.6006 -9.82873 99.6147C-39.7462 107.858 -62.0759 125.48 -74.4357 135.234C-74.846 135.558 -75.2453 135.873 -75.6335 136.179Z" fill="#FEE75B"/>
<path id="Union_4" fill-rule="evenodd" clip-rule="evenodd" d="M-118.519 32.9585L-130.143 41.9209L-116.702 60.5127L-116.78 60.5418L-82.2589 108.294L-68.0159 102.955C-53.0946 97.3614 -24.6086 86.6834 -0.659682 68.5367C7.73314 62.3617 15.387 55.308 23.0219 48.2719C37.399 35.0223 51.7085 21.835 70.7571 14.6946C86.6466 8.73836 105.431 7.14055 124.237 5.5409C139.948 4.20448 155.675 2.86678 169.741 -1.01473C199.891 -8.9358 221.496 -27.5606 233.455 -37.8697C233.852 -38.2119 234.238 -38.5449 234.614 -38.8681L245.876 -48.3296L230.572 -69.5L230.65 -69.5291L200.308 -111.5L186.065 -106.161C171.144 -100.568 142.658 -89.8896 118.077 -72.6164C109.476 -66.7299 101.534 -60.0748 93.6116 -53.4363C78.6933 -40.9354 63.845 -28.4933 44.7964 -21.3528C28.9069 -15.3966 10.4973 -13.2803 -7.93339 -11.1615C-23.3313 -9.39142 -38.7439 -7.61962 -52.7142 -3.60559C-82.6317 4.63752 -104.961 22.2596 -117.321 32.0138C-117.731 32.3376 -118.131 32.6527 -118.519 32.9585Z" fill="#EB459E"/>
</g>
<g id="tube" filter="url(#filter0_d_11_16142)">
<path fill-rule="evenodd" clip-rule="evenodd" d="M89.6508 58.4545H166.159V174.4C166.159 195.718 148.989 213 127.905 213C106.778 213 89.6508 195.722 89.6508 174.4V58.4545ZM82 43H173.81V58.4545H82V43ZM104.953 58.4545V89.3636H150.858V58.4545H104.953ZM116.429 166.636C122.767 166.636 127.905 161.447 127.905 155.045C127.905 148.644 122.767 143.455 116.429 143.455C110.091 143.455 104.953 148.644 104.953 155.045C104.953 161.447 110.091 166.636 116.429 166.636ZM139.381 128C145.719 128 150.858 122.811 150.858 116.409C150.858 110.008 145.719 104.818 139.381 104.818C133.043 104.818 127.905 110.008 127.905 116.409C127.905 122.811 133.043 128 139.381 128Z" fill="white"/>
</g>
</g>
</g>
<defs>
<filter id="filter0_d_11_16142" x="82" y="43" width="97.8101" height="176" filterUnits="userSpaceOnUse" color-interpolation-filters="sRGB">
<feFlood flood-opacity="0" result="BackgroundImageFix"/>
<feColorMatrix in="SourceAlpha" type="matrix" values="0 0 0 0 0 0 0 0 0 0 0 0 0 0 0 0 0 0 127 0" result="hardAlpha"/>
<feOffset dx="6" dy="6"/>
<feComposite in2="hardAlpha" operator="out"/>
<feColorMatrix type="matrix" values="0 0 0 0 0 0 0 0 0 0 0 0 0 0 0 0 0 0 1 0"/>
<feBlend mode="normal" in2="BackgroundImageFix" result="effect1_dropShadow_11_16142"/>
<feBlend mode="normal" in="SourceGraphic" in2="effect1_dropShadow_11_16142" result="shape"/>
</filter>
<clipPath id="clip0_11_16142">
<path d="M0 32C0 14.3269 14.3269 0 32 0H224C241.673 0 256 14.3269 256 32V224C256 241.673 241.673 256 224 256H32C14.3269 256 0 241.673 0 224V32Z" fill="white"/>
</clipPath>
</defs>
</svg>
