<svg width="96" height="96" viewBox="0 0 96 96" fill="none" xmlns="http://www.w3.org/2000/svg">
<g id="dehAdmin">
<g id="Vector">
<path d="M72.6633 25.8648C60.3565 25.8648 50.4002 13.4759 50.3036 13.3434C48.9513 11.5524 46.2896 11.5524 44.9373 13.3434C44.8407 13.4759 34.8843 25.8648 22.5776 25.8648C20.5992 25.8648 19 27.4651 19 29.4424V54.4852C19 68.122 43.0769 81.6514 45.8316 83.1057C46.354 83.3815 47.048 84.0001 47.6204 84.0001C48.1928 84.0001 48.8869 83.3779 49.4092 83.1057C52.1639 81.6514 76.2408 68.122 76.2408 54.4852V29.4424C76.2408 27.4651 74.6417 25.8648 72.6633 25.8648Z" fill="#5865F2"/>
</g>
</g>
</svg>
