<svg width="96" height="96" viewBox="0 0 96 96" fill="none" xmlns="http://www.w3.org/2000/svg">
<g id="dehModerator">
<path id="Vector" d="M28.9043 16.0001L68.0686 55.5381L75.0458 48.4944L79.6863 53.1791L71.5572 61.3857L82.023 71.9513C83.3065 73.2471 83.3065 75.3403 82.023 76.6361L79.6863 78.9951C78.4027 80.2908 76.3293 80.2908 75.0458 78.9951L64.4484 68.4627L56.4181 76.6693L51.7776 71.9846L58.7548 64.9408L19.5905 25.4028V16.0001H28.9043ZM60.7953 41.1184L76.3951 25.3696V16.0001H67.0813L51.4814 31.7489L60.7953 41.1184ZM44.5042 57.7309L35.1904 48.1953L27.917 55.5381L20.9398 48.4944L16.2993 53.1791L24.4284 61.3857L13.9627 71.9846C12.6791 73.2803 12.6791 75.3735 13.9627 76.6693L16.2993 79.0283C17.5829 80.3241 19.6563 80.3241 20.9398 79.0283L31.5372 68.4627L39.5675 76.6693L44.208 71.9846L37.2309 64.9408L44.5042 57.7309Z" fill="#7289DA"/>
</g>
</svg>
