<svg width="96" height="96" viewBox="0 0 96 96" fill="none" xmlns="http://www.w3.org/2000/svg">
<g id="dehMiniContributor" clip-path="url(#clip0_63_2893)">
<g id="Group 10">
<g id="Discord Other" clip-path="url(#clip1_63_2893)">
<path id="Vector" d="M32.3419 24.3285C29.9477 21.9343 26.0658 21.9342 23.6715 24.3285C21.2772 26.7228 21.2773 30.6046 23.6715 32.9989L28.079 37.4064C30.4733 39.8007 34.3552 39.8007 36.7495 37.4065C39.1437 35.0122 39.1437 31.1303 36.7494 28.736L32.3419 24.3285Z" fill="#3498DB"/>
<path id="Vector_2" d="M67.2635 59.2507C64.8692 56.8565 60.9873 56.8564 58.5931 59.2507C56.1988 61.645 56.1988 65.5269 58.5931 67.9212L63.0003 72.3285C65.3947 74.7229 69.2769 74.7231 71.6712 72.3288C74.0655 69.9345 74.0652 66.0524 71.6708 63.658L67.2635 59.2507Z" fill="#3498DB"/>
<path id="Vector_3" d="M72.0872 32.7576C74.4816 30.3632 74.4815 26.4815 72.0872 24.0872C69.6929 21.6929 65.8112 21.6928 63.4168 24.0872L59.0093 28.4946C56.615 30.8889 56.615 34.7708 59.0093 37.1651C61.4036 39.5594 65.2855 39.5594 67.6798 37.1651L72.0872 32.7576Z" fill="#3498DB"/>
<path id="Vector_4" d="M36.9251 67.4393C39.3194 65.045 39.3194 61.1631 36.9251 58.7688C34.5308 56.3745 30.6489 56.3745 28.2547 58.7688L23.8472 63.1763C21.4529 65.5705 21.4529 69.4524 23.8472 71.8467C26.2415 74.241 30.1234 74.241 32.5177 71.8467L36.9251 67.4393Z" fill="#3498DB"/>
</g>
<g id="Discord Other_2" clip-path="url(#clip2_63_2893)">
<path id="Vector_5" d="M53.6665 20.1898C53.6665 16.8038 50.9216 14.0588 47.5356 14.0588C44.1495 14.0588 41.4047 16.8038 41.4047 20.1898V26.4229C41.4047 29.8089 44.1495 32.5539 47.5356 32.5539C50.9216 32.5539 53.6665 29.8089 53.6665 26.4229V20.1898Z" fill="#3498DB"/>
<path id="Vector_6" d="M53.6659 69.5768C53.6659 66.1907 50.921 63.4458 47.535 63.4458C44.149 63.4458 41.4041 66.1907 41.4041 69.5768V75.8096C41.4041 79.1958 44.149 81.9411 47.535 81.9411C50.921 81.9411 53.6659 79.1958 53.6659 75.8096V69.5768Z" fill="#3498DB"/>
<path id="Vector_7" d="M75.8103 54.2542C79.1965 54.2542 81.9412 51.5093 81.9412 48.1233C81.9412 44.7372 79.1965 41.9923 75.8103 41.9923H69.5772C66.1912 41.9923 63.4463 44.7372 63.4463 48.1233C63.4463 51.5093 66.1912 54.2542 69.5772 54.2542H75.8103Z" fill="#3498DB"/>
<path id="Vector_8" d="M26.4233 53.9145C29.8093 53.9145 32.5542 51.1696 32.5542 47.7835C32.5542 44.3975 29.8093 41.6526 26.4233 41.6526H20.1902C16.8042 41.6526 14.0593 44.3975 14.0593 47.7835C14.0593 51.1696 16.8042 53.9145 20.1902 53.9145H26.4233Z" fill="#3498DB"/>
</g>
</g>
</g>
<defs>
<clipPath id="clip0_63_2893">
<rect width="96" height="96" fill="white"/>
</clipPath>
<clipPath id="clip1_63_2893">
<rect width="67.8822" height="67.8822" fill="white" transform="translate(0 48) rotate(-45)"/>
</clipPath>
<clipPath id="clip2_63_2893">
<rect width="67.8822" height="67.8822" fill="white" transform="translate(14.059 14.0588)"/>
</clipPath>
</defs>
</svg>
