<svg width="256" height="256" viewBox="0 0 256 256" fill="none" xmlns="http://www.w3.org/2000/svg">
<g id="DEH Markdown">
<path d="M0 32C0 14.3269 14.3269 0 32 0H224C241.673 0 256 14.3269 256 32V224C256 241.673 241.673 256 224 256H32C14.3269 256 0 241.673 0 224V32Z" fill="#5865F2"/>
<g id="MD Mark" clip-path="url(#clip0_22_326)">
<path id="Vector" d="M213.577 71.3077H42.423C37.1126 71.3077 32.8076 75.6126 32.8076 80.9231V175.154C32.8076 180.464 37.1126 184.769 42.423 184.769H213.577C218.887 184.769 223.192 180.464 223.192 175.154V80.9231C223.192 75.6126 218.887 71.3077 213.577 71.3077Z" stroke="white" stroke-width="9.61539"/>
<path id="Vector_2" d="M56.8462 160.731V95.3462H76.077L95.3077 119.385L114.539 95.3462H133.769V160.731H114.539V123.231L95.3077 147.269L76.077 123.231V160.731H56.8462ZM177.039 160.731L148.192 129H167.423V95.3462H186.654V129H205.885L177.039 160.731Z" fill="white"/>
</g>
</g>
<defs>
<clipPath id="clip0_22_326">
<rect width="200" height="123.077" fill="white" transform="translate(28 66.5)"/>
</clipPath>
</defs>
</svg>
