<svg width="256" height="256" viewBox="0 0 256 256" fill="none" xmlns="http://www.w3.org/2000/svg">
<g id="Masked Links">
<g clip-path="url(#clip0_22_352)">
<path id="Vector" d="M256 0H0V256H256V0Z" fill="#5865F2"/>
<g id="Clip path group">
<mask id="mask0_22_352" style="mask-type:luminance" maskUnits="userSpaceOnUse" x="28" y="28" width="200" height="200">
<g id="clip0_604_159">
<path id="Vector_2" d="M228 28H28V228H228V28Z" fill="white"/>
</g>
</mask>
<g mask="url(#mask0_22_352)">
<g id="Group">
<path id="Vector_3" fill-rule="evenodd" clip-rule="evenodd" d="M116.25 139.75C119.667 143 119.667 148.333 116.25 151.583C113 154.833 107.667 154.833 104.417 151.583C96.6114 143.767 92.2275 133.171 92.2275 122.125C92.2275 111.079 96.6114 100.483 104.417 92.6666L133.917 63.1666C141.734 55.3614 152.329 50.9775 163.375 50.9775C174.421 50.9775 185.017 55.3614 192.833 63.1666C200.638 70.9833 205.022 81.5786 205.022 92.6249C205.022 103.671 200.638 114.267 192.833 122.083L180.417 134.5C180.5 127.667 179.417 120.833 177.083 114.333L181 110.333C183.336 108.022 185.191 105.271 186.457 102.238C187.722 99.2062 188.374 95.9525 188.374 92.6666C188.374 89.3807 187.722 86.127 186.457 83.0947C185.191 80.0624 183.336 77.3109 181 74.9999C178.689 72.664 175.938 70.8093 172.905 69.5437C169.873 68.2775 166.619 67.626 163.333 67.626C160.047 67.626 156.794 68.2775 153.761 69.5437C150.729 70.8093 147.978 72.664 145.667 74.9999L116.25 104.417C113.914 106.728 112.059 109.479 110.794 112.511C109.528 115.544 108.876 118.797 108.876 122.083C108.876 125.369 109.528 128.623 110.794 131.655C112.059 134.687 113.914 137.439 116.25 139.75ZM139.75 104.417C143 101.167 148.333 101.167 151.583 104.417C159.388 112.233 163.772 122.829 163.772 133.875C163.772 144.921 159.388 155.517 151.583 163.333L122.083 192.833C114.267 200.638 103.671 205.022 92.6249 205.022C81.5786 205.022 70.9838 200.638 63.1666 192.833C55.3614 185.017 50.9775 174.421 50.9775 163.375C50.9775 152.329 55.3614 141.733 63.1666 133.917L75.5833 121.5C75.4999 128.333 76.5833 135.167 78.9166 141.75L74.9999 145.667C72.664 147.978 70.8093 150.729 69.5437 153.761C68.2781 156.794 67.626 160.047 67.626 163.333C67.626 166.619 68.2781 169.873 69.5437 172.905C70.8093 175.937 72.664 178.689 74.9999 181C77.3109 183.336 80.0624 185.191 83.0947 186.456C86.1275 187.722 89.3807 188.374 92.6666 188.374C95.9525 188.374 99.2062 187.722 102.238 186.456C105.271 185.191 108.022 183.336 110.333 181L139.75 151.583C142.086 149.272 143.941 146.521 145.207 143.488C146.472 140.456 147.124 137.203 147.124 133.917C147.124 130.631 146.472 127.377 145.207 124.345C143.941 121.312 142.086 118.561 139.75 116.25C138.941 115.492 138.296 114.575 137.855 113.557C137.413 112.54 137.186 111.443 137.186 110.333C137.186 109.224 137.413 108.127 137.855 107.109C138.296 106.092 138.941 105.175 139.75 104.417Z" fill="white"/>
</g>
</g>
</g>
</g>
</g>
<defs>
<clipPath id="clip0_22_352">
<path d="M0 32C0 14.3269 14.3269 0 32 0H224C241.673 0 256 14.3269 256 32V224C256 241.673 241.673 256 224 256H32C14.3269 256 0 241.673 0 224V32Z" fill="white"/>
</clipPath>
</defs>
</svg>
