<svg width="256" height="256" viewBox="0 0 256 256" fill="none" xmlns="http://www.w3.org/2000/svg">
<g id="DEH Soundboard">
<path d="M0 32C0 14.3269 14.3269 0 32 0H224C241.673 0 256 14.3269 256 32V224C256 241.673 241.673 256 224 256H32C14.3269 256 0 241.673 0 224V32Z" fill="#5865F2"/>
<g id="Frame" clip-path="url(#clip0_22_339)">
<g id="Clip path group">
<mask id="mask0_22_339" style="mask-type:luminance" maskUnits="userSpaceOnUse" x="28" y="28" width="200" height="200">
<g id="clip0_414_20322">
<path id="Vector" d="M228 28H28V228H228V28Z" fill="white"/>
</g>
</mask>
<g mask="url(#mask0_22_339)">
<g id="Group">
<path id="Vector_2" d="M44.6667 78.0249V178.025C44.6667 187.225 52.1251 194.692 61.3334 194.692H69.6667V61.3583H61.3334C52.1251 61.3583 44.6667 68.8166 44.6667 78.0249Z" fill="white"/>
<path id="Vector_3" d="M194.667 61.3583H86.3335V194.692H194.667C203.867 194.692 211.333 187.225 211.333 178.025V78.0249C211.333 68.8166 203.867 61.3583 194.667 61.3583ZM186.333 144.692C186.333 153.892 178.867 161.358 169.667 161.358C160.467 161.358 153 153.892 153 144.692C153 135.492 160.467 128.025 169.667 128.025V106.25L136.333 117.367C136.333 117.367 136.333 152.867 136.333 153.025C136.333 162.225 128.867 169.692 119.667 169.692C110.467 169.692 103 162.225 103 153.025C103 143.825 110.467 136.358 119.667 136.358V111.358C119.667 107.767 121.958 104.592 125.367 103.45L175.367 86.7833C177.908 85.9333 180.692 86.3583 182.875 87.9333C185.05 89.4916 186.333 92.0166 186.333 94.6916C186.333 94.6916 186.333 144.525 186.333 144.692Z" fill="white"/>
</g>
</g>
</g>
</g>
</g>
<defs>
<clipPath id="clip0_22_339">
<rect width="200" height="200" fill="white" transform="translate(28 28)"/>
</clipPath>
</defs>
</svg>
