<svg width="256" height="256" viewBox="0 0 256 256" fill="none" xmlns="http://www.w3.org/2000/svg">
<g id="DEH Summaries">
<path d="M0 32C0 14.3269 14.3269 0 32 0H224C241.673 0 256 14.3269 256 32V224C256 241.673 241.673 256 224 256H32C14.3269 256 0 241.673 0 224V32Z" fill="#5865F2"/>
<g id="Frame">
<path id="Vector" d="M180.5 53H120.5C112.25 53 105.5 59.75 105.5 68V105.5C105.5 113.75 98.7497 120.5 90.4998 120.5C73.9249 120.5 60.5 133.925 60.5 150.499V187.999C60.5 196.249 67.25 202.999 75.4999 202.999H135.5C143.749 202.999 150.499 196.249 150.499 187.999V150.499C150.499 142.249 157.249 135.5 165.499 135.5C182.075 135.5 195.499 122.075 195.499 105.5V68C195.499 59.75 188.749 53 180.5 53ZM128 187.999H82.9998C78.8748 187.999 75.4999 184.624 75.4999 180.499C75.4999 176.374 78.8748 172.999 82.9998 172.999H128C132.125 172.999 135.5 176.374 135.5 180.499C135.5 184.624 132.125 187.999 128 187.999ZM128 157.999H82.9998C78.8748 157.999 75.4999 154.624 75.4999 150.499C75.4999 146.374 78.8748 142.999 82.9998 142.999H128C132.125 142.999 135.5 146.374 135.5 150.499C135.5 154.624 132.125 157.999 128 157.999ZM172.999 113H128C123.875 113 120.5 109.625 120.5 105.5C120.5 101.375 123.875 97.9997 128 97.9997H172.999C177.125 97.9997 180.5 101.375 180.5 105.5C180.5 109.625 177.125 113 172.999 113ZM172.999 82.9998H128C123.875 82.9998 120.5 79.6249 120.5 75.4998C120.5 71.375 123.875 68 128 68H172.999C177.125 68 180.5 71.375 180.5 75.4998C180.5 79.6249 177.125 82.9998 172.999 82.9998Z" fill="white"/>
</g>
</g>
</svg>
