<svg width="256" height="256" viewBox="0 0 256 256" fill="none" xmlns="http://www.w3.org/2000/svg">
<g id="DEH Super Reactions">
<path d="M0 32C0 14.3269 14.3269 0 32 0H224C241.673 0 256 14.3269 256 32V224C256 241.673 241.673 256 224 256H32C14.3269 256 0 241.673 0 224V32Z" fill="#5865F2"/>
<g id="Frame">
<path id="Subtract" fill-rule="evenodd" clip-rule="evenodd" d="M219.426 149.563C207.328 194.001 160.913 220.383 115.757 208.474C114.209 208.066 112.683 207.618 111.179 207.132C108.287 206.197 105.395 205.218 102.499 204.239C88.4062 199.471 74.2063 194.667 59.4201 194.667H57.1667C50.2631 194.667 44.6667 189.07 44.6667 182.167C44.6667 175.263 50.2631 169.667 57.1667 169.667C66.0119 169.667 62.7049 162.907 58.9974 155.328C58.3066 153.916 57.602 152.476 56.9595 151.046C55.3418 147.445 51.8846 144.667 47.937 144.667H40.5C33.5964 144.667 28 139.07 28 132.167C28 125.263 33.5964 119.667 40.5 119.667C47.8478 119.667 53.8799 114.062 55.7643 106.96C55.8105 106.786 55.8573 106.611 55.9047 106.437C57.4505 100.759 52.8433 94.8225 48.4147 90.9471C46.1286 88.9468 44.6667 86.0726 44.6667 82.1666C44.6667 75.2631 50.2631 69.6666 57.1667 69.6666C69.9986 69.6666 81.9708 63.9884 92.9118 57.2836C112.105 45.5217 136.01 41.312 159.572 47.5263C222.23 64.9474 225.582 122.81 219.426 149.563ZM105.184 100.634C100.562 99.4151 95.8313 101.298 93.2873 104.997C91.5037 107.59 87.932 110.169 83.8045 109.08C80.0027 108.078 77.0243 103.876 79.1443 99.672C84.518 89.0168 96.9338 83.1997 109.059 86.3976C121.185 89.5955 128.982 100.744 128.223 112.616C127.924 117.299 123.21 119.472 119.408 118.47C115.281 117.382 113.497 113.391 113.27 110.267C112.946 105.812 109.805 101.853 105.184 100.634ZM164.392 152.39C162.75 149.185 159.577 146.67 155.757 145.662L116.676 135.356C112.855 134.348 108.829 134.964 105.779 136.932C102.656 138.946 100.569 142.403 101.011 146.685C102.421 160.356 112.212 172.398 126.508 176.168C140.804 179.938 155.401 174.328 163.567 163.183C166.125 159.692 166.073 155.671 164.392 152.39ZM163.701 124.921C166.617 121.508 171.519 120.13 175.988 121.825C180.457 123.52 183.166 127.786 183.023 132.25C182.923 135.381 184.279 139.536 188.27 141.05C191.946 142.444 196.862 140.776 197.649 136.149C199.645 124.422 193.055 112.519 181.331 108.072C169.606 103.624 156.65 108.111 150.192 118.146C147.644 122.105 150.167 126.596 153.843 127.99C157.834 129.504 161.656 127.313 163.701 124.921Z" fill="white"/>
</g>
</g>
</svg>
