<svg width="256" height="256" viewBox="0 0 256 256" fill="none" xmlns="http://www.w3.org/2000/svg">
<g id="DEH Voice Messages">
<path d="M0 32C0 14.3269 14.3269 0 32 0H224C241.673 0 256 14.3269 256 32V224C256 241.673 241.673 256 224 256H32C14.3269 256 0 241.673 0 224V32Z" fill="#5865F2"/>
<g id="Frame">
<path id="Vector" fill-rule="evenodd" clip-rule="evenodd" d="M152.916 119.667C152.916 133.5 141.833 144.667 128 144.667C114.167 144.667 103 133.5 103 119.667V69.6667C103 55.8334 114.167 44.6667 128 44.6667C141.833 44.6667 153 55.8334 153 69.6667L152.916 119.667ZM128 162.167C151 162.167 172.166 144.667 172.166 119.667H186.333C186.333 148.167 163.666 171.667 136.333 175.667V203H119.667V175.667C92.3332 171.583 69.6665 148.083 69.6665 119.667H83.8332C83.8332 144.667 105 162.167 128 162.167ZM128 61.3334C121.333 61.3334 119.667 66.8889 119.667 69.6667V119.667C119.667 122.444 121.333 128 128 128C134.667 128 136.333 122.444 136.333 119.667V69.6667C136.333 66.8889 134.667 61.3334 128 61.3334Z" fill="white"/>
<path id="Vector_2" fill-rule="evenodd" clip-rule="evenodd" d="M152.916 119.667C152.916 133.5 141.833 144.667 128 144.667C114.167 144.667 103 133.5 103 119.667V69.6667C103 55.8334 114.167 44.6667 128 44.6667C141.833 44.6667 153 55.8334 153 69.6667L152.916 119.667ZM128 162.167C151 162.167 172.166 144.667 172.166 119.667H186.333C186.333 148.167 163.666 171.667 136.333 175.667V211.333H119.667V175.667C92.3332 171.583 69.6665 148.083 69.6665 119.667H83.8332C83.8332 144.667 105 162.167 128 162.167Z" fill="white"/>
</g>
</g>
</svg>
