<svg width="256" height="256" viewBox="0 0 256 256" fill="none" xmlns="http://www.w3.org/2000/svg">
<g id="Variant=Pride_2024">
<g clip-path="url(#clip0_19_2310)">
<path d="M0 32C0 14.3269 14.3269 0 32 0H224C241.673 0 256 14.3269 256 32V224C256 241.673 241.673 256 224 256H32C14.3269 256 0 241.673 0 224V32Z" fill="#EAEAEA"/>
<g id="Waves" filter="url(#filter0_bf_19_2310)">
<path id="Vector 39" d="M-72.5 199C-72.5 199 62.5 253.5 103.5 266.5C165.975 286.309 20.5 118 20.5 118L-72.5 199Z" fill="#5865F2"/>
<path id="Vector 40" d="M-38.5 217C11.5 213 91.8333 254.333 107 268.5L-7.99998 272.5C-39 255.667 -88.5 221 -38.5 217Z" fill="#7967E9"/>
<path id="Vector 38" d="M-74 154.5C-74 154.5 86 232 125.5 275C189.185 344.328 19.5 58.5 19.5 58.5L-74 154.5Z" fill="#66BBFE"/>
<path id="Vector 37" d="M-91 55C-91 55 85 214 127 283.5C186.533 382.014 39 -11 39 -11L-91 55Z" fill="#56F085"/>
<path id="Vector 31" d="M204.544 171.84C195.375 202.704 170.996 229.871 127 256.886C241.5 430 297.436 195.413 324.856 139.52C327.618 116.535 290.764 -118.415 204.544 171.84Z" fill="white"/>
<path id="Vector 29" d="M135.901 292.434L110 290.168L144.193 -13.3367L213.927 -7.23578C194.491 17.5696 198.655 220.811 135.901 292.434Z" fill="#FD5AA8"/>
<path id="Vector 30" d="M143.118 290.628C160.834 181.939 195.654 -44.6083 195.654 -44.6083L368.5 -38.7384C368.5 -38.7384 189.794 171.092 143.118 290.628C137.338 326.091 133.378 349.007 133.042 347.415C130.053 333.242 134.147 313.603 143.118 290.628Z" fill="#FD78D0"/>
<path id="Vector 36" d="M122.558 347.275C121.116 353.728 145.712 -22.595 145.712 -22.595L291.058 -53.2251C291.058 -53.2251 172.058 125.775 122.558 347.275Z" fill="#EB459E"/>
<path id="Vector 32" d="M117.5 333.5C131.5 284.5 324 81.4999 275.161 188.905C292.888 222.383 152.955 345.834 117.5 333.5Z" fill="#66BBFE"/>
<path id="Vector 33" d="M287.177 226.822C262.852 202.93 180.257 250.729 161 276L275.015 290C289.204 278.896 311.502 250.715 287.177 226.822Z" fill="#422A19"/>
<path id="Vector 35" d="M65.5 -55C146 -66.5 107 228.5 125 283C95.4999 244 -49.5 24 -79.5 27C-89.0071 -25.7052 38.6312 -49.9056 65.11 -54.926L65.5 -55Z" fill="#FEE75B"/>
<path id="Vector 34" d="M-11 -8C-11 -8 110.5 227 121 270.391L133 -8H-11Z" fill="#FF8B18"/>
<path id="Vector 28" d="M118.886 392C132.657 329.5 36 -21 36 -21H201.5C201.5 -21 132.657 328.5 132.657 392C132.657 406.829 118.886 392 118.886 392Z" fill="#ED4E4E"/>
</g>
<g id="Particles &#38; Blur">
<rect width="256" height="256" fill="black" fill-opacity="0.1"/>
<g id="Ellipse 5" filter="url(#filter1_f_19_2310)">
<circle cx="173" cy="212" r="1" fill="white" fill-opacity="0.75"/>
</g>
<g id="Ellipse 6" filter="url(#filter2_f_19_2310)">
<circle cx="228.28" cy="56.5256" r="1" fill="white" fill-opacity="0.75"/>
</g>
<g id="Ellipse 7" filter="url(#filter3_f_19_2310)">
<circle cx="79.0214" cy="240.184" r="1" fill="white" fill-opacity="0.75"/>
</g>
<g id="Ellipse 8" filter="url(#filter4_f_19_2310)">
<circle cx="39.1458" cy="49.9436" r="1" fill="white" fill-opacity="0.75"/>
</g>
<g id="Ellipse 9" filter="url(#filter5_f_19_2310)">
<circle cx="204" cy="164" r="1" fill="white" fill-opacity="0.75"/>
</g>
<g id="Ellipse 10" filter="url(#filter6_f_19_2310)">
<circle cx="17" cy="99" r="1" fill="white" fill-opacity="0.75"/>
</g>
<g id="Ellipse 11" filter="url(#filter7_f_19_2310)">
<circle cx="231.853" cy="10.203" r="1" fill="white" fill-opacity="0.25"/>
</g>
<g id="Ellipse 12" filter="url(#filter8_f_19_2310)">
<circle cx="142.116" cy="99.4901" r="1" fill="white" fill-opacity="0.25"/>
</g>
<g id="Ellipse 13" filter="url(#filter9_f_19_2310)">
<circle cx="11.5554" cy="36.72" r="1" fill="white" fill-opacity="0.25"/>
</g>
<g id="Ellipse 14" filter="url(#filter10_f_19_2310)">
<circle cx="75.6254" cy="70.0452" r="1" fill="white" fill-opacity="0.25"/>
</g>
<g id="Ellipse 15" filter="url(#filter11_f_19_2310)">
<circle cx="77" cy="145" r="1" fill="white" fill-opacity="0.25"/>
</g>
<g id="Ellipse 16" filter="url(#filter12_f_19_2310)">
<circle cx="94.3746" cy="14.557" r="1" fill="white" fill-opacity="0.25"/>
</g>
<g id="Ellipse 17" filter="url(#filter13_f_19_2310)">
<circle cx="61.4464" cy="176.017" r="1" fill="white" fill-opacity="0.25"/>
</g>
<g id="Ellipse 18" filter="url(#filter14_f_19_2310)">
<circle cx="37.4322" cy="119.591" r="1" fill="white" fill-opacity="0.25"/>
</g>
<g id="Ellipse 19" filter="url(#filter15_f_19_2310)">
<circle cx="103.337" cy="148.924" r="1" fill="white" fill-opacity="0.25"/>
</g>
<g id="Ellipse 20" filter="url(#filter16_f_19_2310)">
<circle cx="49" cy="65" r="1" fill="white" fill-opacity="0.25"/>
</g>
<g id="Ellipse 21" filter="url(#filter17_f_19_2310)">
<circle cx="196.457" cy="222.451" r="1" fill="white" fill-opacity="0.25"/>
</g>
<g id="Ellipse 22" filter="url(#filter18_f_19_2310)">
<circle cx="96.0992" cy="133.722" r="1" fill="white" fill-opacity="0.25"/>
</g>
<g id="Ellipse 23" filter="url(#filter19_f_19_2310)">
<circle cx="25.6996" cy="31.3432" r="1" fill="white" fill-opacity="0.25"/>
</g>
<g id="Ellipse 24" filter="url(#filter20_f_19_2310)">
<circle cx="98.8447" cy="216.719" r="1" fill="white" fill-opacity="0.25"/>
</g>
<g id="Ellipse 25" filter="url(#filter21_f_19_2310)">
<circle cx="95.4364" cy="82.619" r="0.5" fill="white" fill-opacity="0.25"/>
</g>
<g id="Ellipse 26" filter="url(#filter22_f_19_2310)">
<circle cx="214.62" cy="116.218" r="0.5" fill="white" fill-opacity="0.25"/>
</g>
<g id="Ellipse 27" filter="url(#filter23_f_19_2310)">
<circle cx="176.972" cy="154.162" r="0.5" fill="white" fill-opacity="0.25"/>
</g>
<g id="Ellipse 28" filter="url(#filter24_f_19_2310)">
<circle cx="76.3011" cy="93.3933" r="0.5" fill="white" fill-opacity="0.25"/>
</g>
<g id="Ellipse 29" filter="url(#filter25_f_19_2310)">
<circle cx="157.953" cy="212.999" r="0.5" fill="white" fill-opacity="0.25"/>
</g>
<g id="Ellipse 30" filter="url(#filter26_f_19_2310)">
<circle cx="212.583" cy="36.5958" r="0.5" fill="white" fill-opacity="0.25"/>
</g>
<g id="Ellipse 31" filter="url(#filter27_f_19_2310)">
<circle cx="215.356" cy="61.6155" r="0.5" fill="white" fill-opacity="0.5"/>
</g>
<g id="Ellipse 32" filter="url(#filter28_f_19_2310)">
<circle cx="193.843" cy="234.847" r="0.5" fill="white" fill-opacity="0.5"/>
</g>
<g id="Ellipse 33" filter="url(#filter29_f_19_2310)">
<circle cx="204.945" cy="233.645" r="0.5" fill="white" fill-opacity="0.5"/>
</g>
<g id="Ellipse 34" filter="url(#filter30_f_19_2310)">
<circle cx="121.943" cy="120.209" r="0.5" fill="white" fill-opacity="0.5"/>
</g>
<g id="Ellipse 35" filter="url(#filter31_f_19_2310)">
<circle cx="40.5" cy="99.5757" r="0.5" fill="white" fill-opacity="0.5"/>
</g>
<g id="Ellipse 36" filter="url(#filter32_f_19_2310)">
<circle cx="241.176" cy="55.3456" r="0.5" fill="white" fill-opacity="0.5"/>
</g>
<g id="Ellipse 37" filter="url(#filter33_f_19_2310)">
<circle cx="102.5" cy="221.5" r="0.5" fill="white" fill-opacity="0.5"/>
</g>
</g>
<g id="Tube">
<path id="Tube_2" fill-rule="evenodd" clip-rule="evenodd" d="M150 62.5H106.5V89.2767C113.221 82.0604 124.07 85.0302 131 88C137.655 90.8523 145.314 89.8107 150 86.5279V62.5ZM164.5 171.5V62.5H169.5C170.605 62.5 171.5 61.6046 171.5 60.5V50C171.5 48.8954 170.605 48 169.5 48H87C85.8954 48 85 48.8954 85 50V60.5C85 61.6046 85.8954 62.5 87 62.5H92V171.5C92 191.567 108.595 208 128.5 208C148.365 208 164.5 191.564 164.5 171.5ZM128.5 153.5C128.5 159.525 123.472 164.5 117.5 164.5C111.528 164.5 106.5 159.525 106.5 153.5C106.5 147.475 111.528 142.5 117.5 142.5C123.472 142.5 128.5 147.475 128.5 153.5ZM150 117C150 123.025 144.972 128 139 128C133.028 128 128.5 123.025 128.5 117C128.5 110.975 133.028 106 139 106C144.972 106 150 110.975 150 117Z" fill="white"/>
</g>
</g>
</g>
<defs>
<filter id="filter0_bf_19_2310" x="-115" y="-79.3273" width="507.5" height="501.918" filterUnits="userSpaceOnUse" color-interpolation-filters="sRGB">
<feFlood flood-opacity="0" result="BackgroundImageFix"/>
<feGaussianBlur in="BackgroundImageFix" stdDeviation="12"/>
<feComposite in2="SourceAlpha" operator="in" result="effect1_backgroundBlur_19_2310"/>
<feBlend mode="normal" in="SourceGraphic" in2="effect1_backgroundBlur_19_2310" result="shape"/>
<feGaussianBlur stdDeviation="12" result="effect2_foregroundBlur_19_2310"/>
</filter>
<filter id="filter1_f_19_2310" x="171.25" y="210.25" width="3.5" height="3.5" filterUnits="userSpaceOnUse" color-interpolation-filters="sRGB">
<feFlood flood-opacity="0" result="BackgroundImageFix"/>
<feBlend mode="normal" in="SourceGraphic" in2="BackgroundImageFix" result="shape"/>
<feGaussianBlur stdDeviation="0.375" result="effect1_foregroundBlur_19_2310"/>
</filter>
<filter id="filter2_f_19_2310" x="226.53" y="54.7756" width="3.5" height="3.5" filterUnits="userSpaceOnUse" color-interpolation-filters="sRGB">
<feFlood flood-opacity="0" result="BackgroundImageFix"/>
<feBlend mode="normal" in="SourceGraphic" in2="BackgroundImageFix" result="shape"/>
<feGaussianBlur stdDeviation="0.375" result="effect1_foregroundBlur_19_2310"/>
</filter>
<filter id="filter3_f_19_2310" x="77.2714" y="238.434" width="3.5" height="3.5" filterUnits="userSpaceOnUse" color-interpolation-filters="sRGB">
<feFlood flood-opacity="0" result="BackgroundImageFix"/>
<feBlend mode="normal" in="SourceGraphic" in2="BackgroundImageFix" result="shape"/>
<feGaussianBlur stdDeviation="0.375" result="effect1_foregroundBlur_19_2310"/>
</filter>
<filter id="filter4_f_19_2310" x="37.3958" y="48.1936" width="3.5" height="3.5" filterUnits="userSpaceOnUse" color-interpolation-filters="sRGB">
<feFlood flood-opacity="0" result="BackgroundImageFix"/>
<feBlend mode="normal" in="SourceGraphic" in2="BackgroundImageFix" result="shape"/>
<feGaussianBlur stdDeviation="0.375" result="effect1_foregroundBlur_19_2310"/>
</filter>
<filter id="filter5_f_19_2310" x="202.25" y="162.25" width="3.5" height="3.5" filterUnits="userSpaceOnUse" color-interpolation-filters="sRGB">
<feFlood flood-opacity="0" result="BackgroundImageFix"/>
<feBlend mode="normal" in="SourceGraphic" in2="BackgroundImageFix" result="shape"/>
<feGaussianBlur stdDeviation="0.375" result="effect1_foregroundBlur_19_2310"/>
</filter>
<filter id="filter6_f_19_2310" x="15.25" y="97.25" width="3.5" height="3.5" filterUnits="userSpaceOnUse" color-interpolation-filters="sRGB">
<feFlood flood-opacity="0" result="BackgroundImageFix"/>
<feBlend mode="normal" in="SourceGraphic" in2="BackgroundImageFix" result="shape"/>
<feGaussianBlur stdDeviation="0.375" result="effect1_foregroundBlur_19_2310"/>
</filter>
<filter id="filter7_f_19_2310" x="230.103" y="8.45297" width="3.5" height="3.5" filterUnits="userSpaceOnUse" color-interpolation-filters="sRGB">
<feFlood flood-opacity="0" result="BackgroundImageFix"/>
<feBlend mode="normal" in="SourceGraphic" in2="BackgroundImageFix" result="shape"/>
<feGaussianBlur stdDeviation="0.375" result="effect1_foregroundBlur_19_2310"/>
</filter>
<filter id="filter8_f_19_2310" x="140.366" y="97.7401" width="3.5" height="3.5" filterUnits="userSpaceOnUse" color-interpolation-filters="sRGB">
<feFlood flood-opacity="0" result="BackgroundImageFix"/>
<feBlend mode="normal" in="SourceGraphic" in2="BackgroundImageFix" result="shape"/>
<feGaussianBlur stdDeviation="0.375" result="effect1_foregroundBlur_19_2310"/>
</filter>
<filter id="filter9_f_19_2310" x="9.80536" y="34.97" width="3.5" height="3.5" filterUnits="userSpaceOnUse" color-interpolation-filters="sRGB">
<feFlood flood-opacity="0" result="BackgroundImageFix"/>
<feBlend mode="normal" in="SourceGraphic" in2="BackgroundImageFix" result="shape"/>
<feGaussianBlur stdDeviation="0.375" result="effect1_foregroundBlur_19_2310"/>
</filter>
<filter id="filter10_f_19_2310" x="73.8754" y="68.2952" width="3.5" height="3.5" filterUnits="userSpaceOnUse" color-interpolation-filters="sRGB">
<feFlood flood-opacity="0" result="BackgroundImageFix"/>
<feBlend mode="normal" in="SourceGraphic" in2="BackgroundImageFix" result="shape"/>
<feGaussianBlur stdDeviation="0.375" result="effect1_foregroundBlur_19_2310"/>
</filter>
<filter id="filter11_f_19_2310" x="75.25" y="143.25" width="3.5" height="3.5" filterUnits="userSpaceOnUse" color-interpolation-filters="sRGB">
<feFlood flood-opacity="0" result="BackgroundImageFix"/>
<feBlend mode="normal" in="SourceGraphic" in2="BackgroundImageFix" result="shape"/>
<feGaussianBlur stdDeviation="0.375" result="effect1_foregroundBlur_19_2310"/>
</filter>
<filter id="filter12_f_19_2310" x="92.6246" y="12.807" width="3.5" height="3.5" filterUnits="userSpaceOnUse" color-interpolation-filters="sRGB">
<feFlood flood-opacity="0" result="BackgroundImageFix"/>
<feBlend mode="normal" in="SourceGraphic" in2="BackgroundImageFix" result="shape"/>
<feGaussianBlur stdDeviation="0.375" result="effect1_foregroundBlur_19_2310"/>
</filter>
<filter id="filter13_f_19_2310" x="59.6964" y="174.267" width="3.5" height="3.5" filterUnits="userSpaceOnUse" color-interpolation-filters="sRGB">
<feFlood flood-opacity="0" result="BackgroundImageFix"/>
<feBlend mode="normal" in="SourceGraphic" in2="BackgroundImageFix" result="shape"/>
<feGaussianBlur stdDeviation="0.375" result="effect1_foregroundBlur_19_2310"/>
</filter>
<filter id="filter14_f_19_2310" x="35.6822" y="117.841" width="3.5" height="3.5" filterUnits="userSpaceOnUse" color-interpolation-filters="sRGB">
<feFlood flood-opacity="0" result="BackgroundImageFix"/>
<feBlend mode="normal" in="SourceGraphic" in2="BackgroundImageFix" result="shape"/>
<feGaussianBlur stdDeviation="0.375" result="effect1_foregroundBlur_19_2310"/>
</filter>
<filter id="filter15_f_19_2310" x="101.587" y="147.174" width="3.5" height="3.5" filterUnits="userSpaceOnUse" color-interpolation-filters="sRGB">
<feFlood flood-opacity="0" result="BackgroundImageFix"/>
<feBlend mode="normal" in="SourceGraphic" in2="BackgroundImageFix" result="shape"/>
<feGaussianBlur stdDeviation="0.375" result="effect1_foregroundBlur_19_2310"/>
</filter>
<filter id="filter16_f_19_2310" x="47.25" y="63.25" width="3.5" height="3.5" filterUnits="userSpaceOnUse" color-interpolation-filters="sRGB">
<feFlood flood-opacity="0" result="BackgroundImageFix"/>
<feBlend mode="normal" in="SourceGraphic" in2="BackgroundImageFix" result="shape"/>
<feGaussianBlur stdDeviation="0.375" result="effect1_foregroundBlur_19_2310"/>
</filter>
<filter id="filter17_f_19_2310" x="194.707" y="220.701" width="3.5" height="3.5" filterUnits="userSpaceOnUse" color-interpolation-filters="sRGB">
<feFlood flood-opacity="0" result="BackgroundImageFix"/>
<feBlend mode="normal" in="SourceGraphic" in2="BackgroundImageFix" result="shape"/>
<feGaussianBlur stdDeviation="0.375" result="effect1_foregroundBlur_19_2310"/>
</filter>
<filter id="filter18_f_19_2310" x="94.3492" y="131.972" width="3.5" height="3.5" filterUnits="userSpaceOnUse" color-interpolation-filters="sRGB">
<feFlood flood-opacity="0" result="BackgroundImageFix"/>
<feBlend mode="normal" in="SourceGraphic" in2="BackgroundImageFix" result="shape"/>
<feGaussianBlur stdDeviation="0.375" result="effect1_foregroundBlur_19_2310"/>
</filter>
<filter id="filter19_f_19_2310" x="23.9496" y="29.5932" width="3.5" height="3.5" filterUnits="userSpaceOnUse" color-interpolation-filters="sRGB">
<feFlood flood-opacity="0" result="BackgroundImageFix"/>
<feBlend mode="normal" in="SourceGraphic" in2="BackgroundImageFix" result="shape"/>
<feGaussianBlur stdDeviation="0.375" result="effect1_foregroundBlur_19_2310"/>
</filter>
<filter id="filter20_f_19_2310" x="97.0947" y="214.969" width="3.5" height="3.5" filterUnits="userSpaceOnUse" color-interpolation-filters="sRGB">
<feFlood flood-opacity="0" result="BackgroundImageFix"/>
<feBlend mode="normal" in="SourceGraphic" in2="BackgroundImageFix" result="shape"/>
<feGaussianBlur stdDeviation="0.375" result="effect1_foregroundBlur_19_2310"/>
</filter>
<filter id="filter21_f_19_2310" x="94.1864" y="81.369" width="2.5" height="2.5" filterUnits="userSpaceOnUse" color-interpolation-filters="sRGB">
<feFlood flood-opacity="0" result="BackgroundImageFix"/>
<feBlend mode="normal" in="SourceGraphic" in2="BackgroundImageFix" result="shape"/>
<feGaussianBlur stdDeviation="0.375" result="effect1_foregroundBlur_19_2310"/>
</filter>
<filter id="filter22_f_19_2310" x="213.37" y="114.968" width="2.5" height="2.5" filterUnits="userSpaceOnUse" color-interpolation-filters="sRGB">
<feFlood flood-opacity="0" result="BackgroundImageFix"/>
<feBlend mode="normal" in="SourceGraphic" in2="BackgroundImageFix" result="shape"/>
<feGaussianBlur stdDeviation="0.375" result="effect1_foregroundBlur_19_2310"/>
</filter>
<filter id="filter23_f_19_2310" x="175.722" y="152.912" width="2.5" height="2.5" filterUnits="userSpaceOnUse" color-interpolation-filters="sRGB">
<feFlood flood-opacity="0" result="BackgroundImageFix"/>
<feBlend mode="normal" in="SourceGraphic" in2="BackgroundImageFix" result="shape"/>
<feGaussianBlur stdDeviation="0.375" result="effect1_foregroundBlur_19_2310"/>
</filter>
<filter id="filter24_f_19_2310" x="75.0511" y="92.1433" width="2.5" height="2.5" filterUnits="userSpaceOnUse" color-interpolation-filters="sRGB">
<feFlood flood-opacity="0" result="BackgroundImageFix"/>
<feBlend mode="normal" in="SourceGraphic" in2="BackgroundImageFix" result="shape"/>
<feGaussianBlur stdDeviation="0.375" result="effect1_foregroundBlur_19_2310"/>
</filter>
<filter id="filter25_f_19_2310" x="156.703" y="211.749" width="2.5" height="2.5" filterUnits="userSpaceOnUse" color-interpolation-filters="sRGB">
<feFlood flood-opacity="0" result="BackgroundImageFix"/>
<feBlend mode="normal" in="SourceGraphic" in2="BackgroundImageFix" result="shape"/>
<feGaussianBlur stdDeviation="0.375" result="effect1_foregroundBlur_19_2310"/>
</filter>
<filter id="filter26_f_19_2310" x="211.333" y="35.3458" width="2.5" height="2.5" filterUnits="userSpaceOnUse" color-interpolation-filters="sRGB">
<feFlood flood-opacity="0" result="BackgroundImageFix"/>
<feBlend mode="normal" in="SourceGraphic" in2="BackgroundImageFix" result="shape"/>
<feGaussianBlur stdDeviation="0.375" result="effect1_foregroundBlur_19_2310"/>
</filter>
<filter id="filter27_f_19_2310" x="214.106" y="60.3655" width="2.5" height="2.5" filterUnits="userSpaceOnUse" color-interpolation-filters="sRGB">
<feFlood flood-opacity="0" result="BackgroundImageFix"/>
<feBlend mode="normal" in="SourceGraphic" in2="BackgroundImageFix" result="shape"/>
<feGaussianBlur stdDeviation="0.375" result="effect1_foregroundBlur_19_2310"/>
</filter>
<filter id="filter28_f_19_2310" x="192.593" y="233.597" width="2.5" height="2.5" filterUnits="userSpaceOnUse" color-interpolation-filters="sRGB">
<feFlood flood-opacity="0" result="BackgroundImageFix"/>
<feBlend mode="normal" in="SourceGraphic" in2="BackgroundImageFix" result="shape"/>
<feGaussianBlur stdDeviation="0.375" result="effect1_foregroundBlur_19_2310"/>
</filter>
<filter id="filter29_f_19_2310" x="203.695" y="232.395" width="2.5" height="2.5" filterUnits="userSpaceOnUse" color-interpolation-filters="sRGB">
<feFlood flood-opacity="0" result="BackgroundImageFix"/>
<feBlend mode="normal" in="SourceGraphic" in2="BackgroundImageFix" result="shape"/>
<feGaussianBlur stdDeviation="0.375" result="effect1_foregroundBlur_19_2310"/>
</filter>
<filter id="filter30_f_19_2310" x="120.693" y="118.959" width="2.5" height="2.5" filterUnits="userSpaceOnUse" color-interpolation-filters="sRGB">
<feFlood flood-opacity="0" result="BackgroundImageFix"/>
<feBlend mode="normal" in="SourceGraphic" in2="BackgroundImageFix" result="shape"/>
<feGaussianBlur stdDeviation="0.375" result="effect1_foregroundBlur_19_2310"/>
</filter>
<filter id="filter31_f_19_2310" x="39.25" y="98.3257" width="2.5" height="2.5" filterUnits="userSpaceOnUse" color-interpolation-filters="sRGB">
<feFlood flood-opacity="0" result="BackgroundImageFix"/>
<feBlend mode="normal" in="SourceGraphic" in2="BackgroundImageFix" result="shape"/>
<feGaussianBlur stdDeviation="0.375" result="effect1_foregroundBlur_19_2310"/>
</filter>
<filter id="filter32_f_19_2310" x="239.926" y="54.0956" width="2.5" height="2.5" filterUnits="userSpaceOnUse" color-interpolation-filters="sRGB">
<feFlood flood-opacity="0" result="BackgroundImageFix"/>
<feBlend mode="normal" in="SourceGraphic" in2="BackgroundImageFix" result="shape"/>
<feGaussianBlur stdDeviation="0.375" result="effect1_foregroundBlur_19_2310"/>
</filter>
<filter id="filter33_f_19_2310" x="101.25" y="220.25" width="2.5" height="2.5" filterUnits="userSpaceOnUse" color-interpolation-filters="sRGB">
<feFlood flood-opacity="0" result="BackgroundImageFix"/>
<feBlend mode="normal" in="SourceGraphic" in2="BackgroundImageFix" result="shape"/>
<feGaussianBlur stdDeviation="0.375" result="effect1_foregroundBlur_19_2310"/>
</filter>
<clipPath id="clip0_19_2310">
<path d="M0 32C0 14.3269 14.3269 0 32 0H224C241.673 0 256 14.3269 256 32V224C256 241.673 241.673 256 224 256H32C14.3269 256 0 241.673 0 224V32Z" fill="white"/>
</clipPath>
</defs>
</svg>
