<svg width="1920" height="1080" viewBox="0 0 1920 1080" fill="none" xmlns="http://www.w3.org/2000/svg">
<g id="Banner">
<g clip-path="url(#clip0_44_3102)">
<path d="M0 16C0 7.16342 7.16345 0 16 0H1904C1912.84 0 1920 7.16344 1920 16V1064C1920 1072.84 1912.84 1080 1904 1080H16C7.16343 1080 0 1072.84 0 1064V16Z" fill="#5865F2"/>
<g id="Ellipse 1" opacity="0.25" filter="url(#filter0_f_44_3102)">
<circle cx="84.5" cy="88.5" r="329.5" fill="#DADADA"/>
</g>
<g id="Ellipse 2" opacity="0.75" filter="url(#filter1_f_44_3102)">
<circle cx="1599" cy="823" r="534" fill="#454FBF"/>
</g>
<g id="Main">
<g id="Tube">
<path id="Tube_2" fill-rule="evenodd" clip-rule="evenodd" d="M638.4 412.275H553.575V464.49C566.681 450.418 587.837 456.209 601.35 462C614.328 467.562 629.262 465.531 638.4 459.129V412.275ZM666.675 624.825V412.275H676.425C678.579 412.275 680.325 410.529 680.325 408.375V387.9C680.325 385.746 678.579 384 676.425 384H515.55C513.396 384 511.65 385.746 511.65 387.9V408.375C511.65 410.529 513.396 412.275 515.55 412.275H525.3V624.825C525.3 663.956 557.66 696 596.475 696C635.211 696 666.675 663.95 666.675 624.825ZM596.475 589.725C596.475 601.474 586.669 611.175 575.025 611.175C563.38 611.175 553.575 601.474 553.575 589.725C553.575 577.976 563.38 568.275 575.025 568.275C586.669 568.275 596.475 577.976 596.475 589.725ZM638.4 518.55C638.4 530.299 628.594 540 616.95 540C605.305 540 596.475 530.299 596.475 518.55C596.475 506.801 605.305 497.1 616.95 497.1C628.594 497.1 638.4 506.801 638.4 518.55Z" fill="white"/>
</g>
<path id="DISCORD&#226;&#128;&#168;EXPERIMENT&#226;&#128;&#168;HUB" d="M755.42 394.96H789.132C813.66 394.96 829.9 410.304 829.9 432.48C829.9 454.656 813.66 470 789.132 470H755.42V394.96ZM780.172 449.616H786.892C797.756 449.616 804.924 442.448 804.924 432.48C804.924 422.512 797.756 415.344 786.892 415.344H780.172V449.616ZM861.328 470H836.576V394.96H861.328V470ZM902.322 393.28C921.026 393.28 933.458 400.896 936.034 415.232L912.066 420.048C910.386 412.88 905.234 411.76 902.434 411.76C899.186 411.76 896.61 413.216 896.61 416.128C896.61 417.472 897.058 418.928 899.522 419.6L914.194 423.408C928.754 427.216 936.482 433.712 936.482 446.032C936.482 465.072 917.89 471.68 903.442 471.68C883.954 471.68 869.954 462.048 867.714 448.048L892.69 443.456C894.37 449.728 898.066 452.304 903.442 452.304C906.802 452.304 910.05 451.184 910.05 448.048C910.05 446.704 909.49 445.36 906.69 444.576L891.346 440.544C877.01 437.072 870.29 430.016 870.29 418.592C870.29 401.68 884.738 393.28 902.322 393.28ZM995.896 437.744L1020.76 442.448C1017.74 460.256 1003.06 471.68 981.336 471.68C958.376 471.68 940.456 454.432 940.456 432.48C940.456 410.528 958.376 393.28 981.336 393.28C1000.6 393.28 1017.4 404.48 1020.65 421.84L995.784 426.32C994.104 419.6 989.176 415.232 981.336 415.232C972.376 415.232 965.32 422.736 965.32 432.48C965.32 442.224 972.376 449.728 981.336 449.728C989.064 449.728 993.992 445.024 995.896 437.744ZM1067.2 393.28C1090.16 393.28 1108.08 410.528 1108.08 432.48C1108.08 454.432 1090.16 471.68 1067.2 471.68C1044.24 471.68 1026.32 454.432 1026.32 432.48C1026.32 410.528 1044.24 393.28 1067.2 393.28ZM1067.2 449.728C1076.72 449.728 1083.21 442.224 1083.21 432.48C1083.21 422.736 1076.72 415.232 1067.2 415.232C1057.68 415.232 1051.18 422.736 1051.18 432.48C1051.18 442.224 1057.68 449.728 1067.2 449.728ZM1187.96 470H1158.39L1139.91 447.824H1139.58V470H1114.83V394.96H1156.83C1173.07 394.96 1183.93 405.376 1183.93 420.944C1183.93 432.704 1177.66 441.664 1167.35 445.584L1187.96 470ZM1139.58 414.784V429.12H1150.78C1156.38 429.12 1159.74 426.208 1159.74 421.728C1159.74 417.584 1156.38 414.784 1150.78 414.784H1139.58ZM1191.94 394.96H1225.65C1250.18 394.96 1266.42 410.304 1266.42 432.48C1266.42 454.656 1250.18 470 1225.65 470H1191.94V394.96ZM1216.69 449.616H1223.41C1234.27 449.616 1241.44 442.448 1241.44 432.48C1241.44 422.512 1234.27 415.344 1223.41 415.344H1216.69V449.616ZM816.572 555.728V576H755.42V500.96H816.012V521.232H780.172V529.52H812.988V547.44H780.172V555.728H816.572ZM872.505 576L860.185 554.72L847.977 576H819.641L841.593 538.48L820.537 500.96H848.873L860.185 521.68L871.609 500.96H899.945L878.889 538.48L900.841 576H872.505ZM904.717 500.96H945.597C961.949 500.96 972.813 511.936 972.813 528.064C972.813 544.976 960.941 556.176 943.245 556.176H929.469V576H904.717V500.96ZM929.469 537.472H939.325C944.253 537.472 948.621 534.112 948.621 528.848C948.621 524.144 944.253 520.784 939.325 520.784H929.469V537.472ZM1040.13 555.728V576H978.982V500.96H1039.57V521.232H1003.73V529.52H1036.55V547.44H1003.73V555.728H1040.13ZM1120.26 576H1090.69L1072.21 553.824H1071.88V576H1047.12V500.96H1089.12C1105.36 500.96 1116.23 511.376 1116.23 526.944C1116.23 538.704 1109.96 547.664 1099.65 551.584L1120.26 576ZM1071.88 520.784V535.12H1083.08C1088.68 535.12 1092.04 532.208 1092.04 527.728C1092.04 523.584 1088.68 520.784 1083.08 520.784H1071.88ZM1148.98 576H1124.23V500.96H1148.98V576ZM1249.34 500.96V576H1225.15V542.288L1209.02 576H1197.15L1181.02 542.288V576H1156.83V500.96H1184.38L1203.08 539.936L1221.79 500.96H1249.34ZM1318.38 555.728V576H1257.23V500.96H1317.82V521.232H1281.98V529.52H1314.8V547.44H1281.98V555.728H1318.38ZM1401.31 500.96V576H1381.04L1350.13 542.176V576H1325.37V500.96H1345.65L1376.56 536.352V500.96H1401.31ZM1477.92 521.792H1455.07V576H1430.32V521.792H1407.47V500.96H1477.92V521.792ZM828.108 606.96V682H803.356V654.56H780.172V682H755.42V606.96H780.172V633.728H803.356V606.96H828.108ZM907.824 606.96V647.84C907.824 670.128 893.712 683.68 872.656 683.68C850.928 683.68 836.48 670.128 836.48 647.84V606.96H861.344V647.84C861.344 656.912 865.824 661.728 872.656 661.728C878.816 661.728 882.96 656.912 882.96 647.84V606.96H907.824ZM967.609 643.248V643.696C976.233 643.696 984.857 647.728 984.857 660.608C984.857 673.488 974.441 682 958.873 682H916.201V606.96H958.873C973.097 606.96 982.617 614.8 982.617 626.672C982.617 638.656 973.769 643.248 967.609 643.248ZM940.953 625.552V637.2H951.369C955.625 637.2 958.425 634.848 958.425 631.376C958.425 627.792 955.625 625.552 951.369 625.552H940.953ZM940.953 663.408H952.489C956.745 663.408 959.545 660.832 959.545 656.8C959.545 653.328 956.745 651.088 952.489 651.088H940.953V663.408Z" fill="white"/>
</g>
</g>
</g>
<defs>
<filter id="filter0_f_44_3102" x="-645" y="-641" width="1459" height="1459" filterUnits="userSpaceOnUse" color-interpolation-filters="sRGB">
<feFlood flood-opacity="0" result="BackgroundImageFix"/>
<feBlend mode="normal" in="SourceGraphic" in2="BackgroundImageFix" result="shape"/>
<feGaussianBlur stdDeviation="200" result="effect1_foregroundBlur_44_3102"/>
</filter>
<filter id="filter1_f_44_3102" x="553" y="-223" width="2092" height="2092" filterUnits="userSpaceOnUse" color-interpolation-filters="sRGB">
<feFlood flood-opacity="0" result="BackgroundImageFix"/>
<feBlend mode="normal" in="SourceGraphic" in2="BackgroundImageFix" result="shape"/>
<feGaussianBlur stdDeviation="256" result="effect1_foregroundBlur_44_3102"/>
</filter>
<clipPath id="clip0_44_3102">
<path d="M0 16C0 7.16342 7.16345 0 16 0H1904C1912.84 0 1920 7.16344 1920 16V1064C1920 1072.84 1912.84 1080 1904 1080H16C7.16343 1080 0 1072.84 0 1064V16Z" fill="white"/>
</clipPath>
</defs>
</svg>
