<svg width="256" height="256" viewBox="0 0 256 256" fill="none" xmlns="http://www.w3.org/2000/svg">
<g id="Credits">
<path d="M0 32C0 14.3269 14.3269 0 32 0H224C241.673 0 256 14.3269 256 32V224C256 241.673 241.673 256 224 256H32C14.3269 256 0 241.673 0 224V32Z" fill="#5865F2"/>
<path id="Heart 2" d="M144.787 179.883C160.86 167.823 184.055 148.942 193.721 133.842C200.953 122.56 203.307 108.584 200.161 95.5885C193.44 65.9866 156.221 53.8905 133.038 73.7279C131.734 74.8363 130.532 76.0649 129.299 77.3266C128.795 77.8414 128.286 78.3618 127.763 78.8816C127.239 78.3618 126.73 77.8414 126.227 77.3265C124.993 76.0649 123.791 74.8363 122.487 73.7279C99.304 53.8905 62.0857 65.9866 55.3646 95.5885C52.2188 108.584 54.5718 122.56 61.8044 133.842C71.4701 148.942 94.6649 167.823 110.738 179.883C115.217 183.245 127.763 192 127.763 192C127.763 192 140.309 183.245 144.787 179.883Z" fill="white"/>
</g>
</svg>
