<svg width="256" height="256" viewBox="0 0 256 256" fill="none" xmlns="http://www.w3.org/2000/svg">
<g id="Rules">
<g clip-path="url(#clip0_23_359)">
<g id="Guidelines">
<rect width="256" height="256" fill="#5865F2"/>
<path id="Rules_2" d="M179.133 184V80H187V192H84.7333C76.0446 192 69 184.836 69 176V80C69 71.164 76.0446 64 84.7333 64H171.267V168H84.7333C80.389 168 76.8667 171.578 76.8667 176C76.8667 180.422 80.389 184 84.7333 184H179.133ZM143.622 89.6L111.83 120.288L99.3205 108.201L88.6667 118.422L111.828 140.8L154.222 99.841L143.622 89.6Z" fill="white"/>
</g>
</g>
</g>
<defs>
<clipPath id="clip0_23_359">
<path d="M0 32C0 14.3269 14.3269 0 32 0H224C241.673 0 256 14.3269 256 32V224C256 241.673 241.673 256 224 256H32C14.3269 256 0 241.673 0 224V32Z" fill="white"/>
</clipPath>
</defs>
</svg>
