<svg width="256" height="256" viewBox="0 0 256 256" fill="none" xmlns="http://www.w3.org/2000/svg">
<g id="Support the Team">
<path d="M0 32C0 14.3269 14.3269 0 32 0H224C241.673 0 256 14.3269 256 32V224C256 241.673 241.673 256 224 256H32C14.3269 256 0 241.673 0 224V32Z" fill="#5865F2"/>
<path id="Vector" d="M188.851 124.851L151.055 116.977L165.355 94.9924C165.738 94.388 165.904 93.6711 165.825 92.9597C165.746 92.2484 165.428 91.5849 164.922 91.0789C164.416 90.5728 163.752 90.2541 163.041 90.1753C162.33 90.0966 161.613 90.2628 161.008 90.6459L139.024 104.945L131.15 67.1496C131.15 66.3143 130.818 65.5133 130.227 64.9227C129.637 64.3321 128.835 64 128 64C127.165 64 126.364 64.3321 125.773 64.9227C125.182 65.5133 124.851 66.3143 124.851 67.1496L116.976 104.945L94.9922 90.6459C94.3877 90.2628 93.6708 90.0966 92.9594 90.1753C92.2482 90.2541 91.5847 90.5728 91.0786 91.0789C90.5726 91.5849 90.2539 92.2484 90.1751 92.9597C90.0964 93.6711 90.2625 94.388 90.6457 94.9924L104.945 116.977L67.1497 124.851C66.3143 124.851 65.5131 125.182 64.9224 125.773C64.3317 126.364 64 127.165 64 128C64 128.836 64.3317 129.637 64.9224 130.227C65.5131 130.818 66.3143 131.15 67.1497 131.15L104.945 139.024L90.6457 161.008C90.254 161.609 90.0838 162.327 90.1644 163.041C90.2448 163.753 90.5708 164.415 91.0867 164.914C91.3679 165.216 91.7093 165.457 92.089 165.619C92.4688 165.782 92.8782 165.864 93.2913 165.859C93.8933 165.848 94.481 165.673 94.9922 165.355L116.976 151.055L124.851 188.85C124.851 189.686 125.182 190.487 125.773 191.078C126.364 191.669 127.165 192 128 192C128.835 192 129.637 191.669 130.227 191.078C130.818 190.487 131.15 189.686 131.15 188.85L139.024 151.055L161.008 165.355C161.519 165.673 162.107 165.848 162.709 165.859C163.123 165.864 163.532 165.782 163.912 165.619C164.291 165.457 164.633 165.216 164.914 164.914C165.43 164.415 165.756 163.753 165.836 163.041C165.916 162.327 165.746 161.609 165.355 161.008L151.055 139.024L188.851 131.15C189.686 131.15 190.488 130.818 191.078 130.227C191.668 129.637 192 128.836 192 128C192 127.165 191.668 126.364 191.078 125.773C190.488 125.182 189.686 124.851 188.851 124.851Z" fill="white"/>
</g>
</svg>
